<svg id="Layer_1" data-name="Layer 1" xmlns="http://www.w3.org/2000/svg" viewBox="0 0 1898.51 1677.99"><defs><style>.cls-1{fill:#000716;}.cls-2{fill:#e2e2e2;}.cls-3{fill:#ff2e60;}.cls-4{fill:#32ffcf;}</style></defs><title>basi</title><rect class="cls-1" width="1898.51" height="1677.99"/><path class="cls-2" d="M-3449.27,3171.64V3032.23h-45.5v139.41h-136.49V3032.23h-45.5v185.88h182v77.45h45.5v-77.45h30.33v-46.47h-30.33Z" transform="translate(4363.38 -2324.9)"/><polygon class="cls-2" points="717.95 707.33 717.92 707.36 717.92 707.33 717.95 707.33"/><path class="cls-2" d="M-3709.31,3109.68q0-32.05-22.7-54.76t-54.75-22.69h-185.88v263.33h185.88q32.05,0,54.75-22.69t22.7-54.76q0-31.74-22.15-54.21Q-3709.32,3141.45-3709.31,3109.68ZM-3764.84,3240a29.88,29.88,0,0,1-21.92,9.06h-139.41v-62h139.41a29.88,29.88,0,0,1,21.92,9.06,29.88,29.88,0,0,1,9.06,21.92A29.85,29.85,0,0,1-3764.84,3240Zm0-108.43a29.88,29.88,0,0,1-21.92,9.06h-139.41v-62h139.41a29.88,29.88,0,0,1,21.92,9.06,29.88,29.88,0,0,1,9.06,21.92A29.85,29.85,0,0,1-3764.84,3131.6Z" transform="translate(4363.38 -2324.9)"/><path class="cls-2" d="M-3253.11,3032.23v0.14h46.47v-0.14h-46.47Z" transform="translate(4363.38 -2324.9)"/><path class="cls-3" d="M-2894.48,3032.23l-120.71,263.33h46.45L-2848,3032.23h-46.45Z" transform="translate(4363.38 -2324.9)"/><polygon class="cls-4" points="1687.37 839 1586.99 970.66 1540.53 970.66 1640.92 839 1540.53 707.33 1586.99 707.33 1687.37 839"/><polygon class="cls-4" points="211.13 838.99 311.52 707.33 357.98 707.33 257.59 838.99 357.98 970.66 311.52 970.66 211.13 838.99"/><rect class="cls-2" x="1110.28" y="707.33" width="46.47" height="0.14"/><path class="cls-2" d="M-3339.55,3078.7v38.72h139.4q32.07,0,54.76,22.7t22.7,54.76v23.23q0,32.07-22.7,54.76t-54.76,22.69h-108.42q-32.07,0-54.76-22.69t-22.69-54.62h46.47a29.83,29.83,0,0,0,9.06,21.78,29.85,29.85,0,0,0,21.92,9.06h108.42a29.87,29.87,0,0,0,21.93-9.06,29.86,29.86,0,0,0,9.06-21.92v-23.23a29.86,29.86,0,0,0-9.06-21.92,29.84,29.84,0,0,0-21.93-9.07h-6.49v-0.06h-46.47v0.06h-1.24v0.22h-85.2v-0.23H-3386V3032.23h263.33v46.47h-216.86Z" transform="translate(4363.38 -2324.9)"/><rect class="cls-2" x="1110.28" y="707.33" width="46.47" height="0.06"/><rect class="cls-2" x="1271.62" y="707.33" width="46.47" height="46.47"/><rect class="cls-2" x="1271.62" y="792.39" width="46.47" height="178.27"/><rect class="cls-2" x="995.17" y="707.33" width="28.67" height="0.02"/><polygon class="cls-2" points="1122.47 707.33 1122.47 707.4 1109.04 707.4 1109.04 707.39 1110.28 707.39 1110.28 707.33 1122.47 707.33"/></svg>